<?xml version="1.0" encoding="iso-8859-1"?>
<!-- Generator: Adobe Illustrator 21.0.2, SVG Export Plug-In . SVG Version: 6.00 Build 0)  -->
<svg version="1.1" xmlns="http://www.w3.org/2000/svg" xmlns:xlink="http://www.w3.org/1999/xlink" x="0px" y="0px"
	 viewBox="0 0 64 64" style="enable-background:new 0 0 64 64;" xml:space="preserve">
<g id="spinning_top">
</g>
<g id="boat">
</g>
<g id="rocking_horse">
</g>
<g id="truck">
</g>
<g id="shirt">
</g>
<g id="gameboy">
</g>
<g id="castle">
</g>
<g id="train">
</g>
<g id="baby_mobile">
</g>
<g id="car">
</g>
<g id="duck">
</g>
<g id="balloon">
</g>
<g id="piano">
</g>
<g id="robot">
</g>
<g id="puzzle">
</g>
<g id="roller_skate">
	<g>
		<path d="M56.8135,47.1406h-0.3733c-1.0984-7.7159-6.032-11.9664-13.9792-11.9717L29.3975,35.166v-4.7173h0.7949
			c1.5977,0,2.8975-1.2998,2.8975-2.8979v-1.5625c0-1.5981-1.2998-2.8979-2.8975-2.8979h-0.7949v-3.4102h0.8467
			c1.5977,0,2.8975-1.2998,2.8975-2.8979v-1.5591c0-1.5981-1.2998-2.8979-2.8975-2.8979h-0.8467V8.832h0.1963
			c1.6914,0,3.0674-1.376,3.0674-3.0674V4.064c0-1.6895-1.376-3.064-3.0674-3.064H6.5332C4.8418,1,3.4658,2.3745,3.4658,4.064
			v1.7007c0,1.6914,1.376,3.0674,3.0674,3.0674h0.1953v38.3549c-1.9775,0.2304-3.5225,1.8962-3.5225,3.9337
			c0,2.1963,1.7852,3.9834,3.9805,3.9834h2.2148c-0.1694,0.5606-0.2627,1.1539-0.2627,1.769c0,3.3784,2.75,6.127,6.1299,6.127
			c3.3779,0,6.127-2.7485,6.127-6.127c0-0.6151-0.0933-1.2084-0.2626-1.769h6.7017c-0.1273,0.4796-0.2017,0.9805-0.2017,1.4995
			c0,3.23,2.6289,5.8574,5.8604,5.8574c3.2295,0,5.8574-2.6274,5.8574-5.8574c0-0.519-0.0745-1.02-0.2017-1.4995h2.6865
			c-0.1272,0.4796-0.2016,0.9805-0.2016,1.4995c0,3.23,2.627,5.8574,5.8564,5.8574s5.8574-2.6274,5.8574-5.8574
			c0-0.519-0.0745-1.02-0.2017-1.4995h3.6675c2.1953,0,3.9805-1.7871,3.9805-3.9834
			C60.7939,48.9263,59.0088,47.1406,56.8135,47.1406z M30.1924,25.0903c0.4863,0,0.8975,0.4111,0.8975,0.8979v1.5625
			c0,0.4951-0.4023,0.8979-0.8975,0.8979h-6.5137c-0.4951,0-0.8975-0.4028-0.8975-0.8979v-1.5625
			c0-0.4868,0.4111-0.8979,0.8975-0.8979H30.1924z M30.2441,14.3252c0.4951,0,0.8975,0.4028,0.8975,0.8979v1.5591
			c0,0.4951-0.4023,0.8979-0.8975,0.8979h-6.5127c-0.4951,0-0.8984-0.4028-0.8984-0.8979v-1.5591
			c0-0.4951,0.4033-0.8979,0.8984-0.8979H30.2441z M5.4658,5.7646V4.064C5.4658,3.4775,5.9443,3,6.5332,3h23.0605
			c0.5889,0,1.0674,0.4775,1.0674,1.064v1.7007c0,0.5884-0.4785,1.0674-1.0674,1.0674h-1.1963H7.7285H6.5332
			C5.9443,6.832,5.4658,6.353,5.4658,5.7646z M27.3975,8.832v3.4932h-3.666c-1.5986,0-2.8984,1.2998-2.8984,2.8979v1.5591
			c0,1.5981,1.2998,2.8979,2.8984,2.8979h3.666v3.4102h-3.7188c-1.5977,0-2.8975,1.2998-2.8975,2.8979v1.5625
			c0,1.5981,1.2998,2.8979,2.8975,2.8979h3.7188v5.7168c0,0.5522,0.4473,1,1,1L42.46,37.1689
			c4.7958,0.0028,10.6603,1.7809,11.9536,9.9717H21.0977v-2.0972c0-1.3027-1.0596-2.3623-2.3623-2.3623H8.7285V8.832H27.3975z
			 M19.0977,45.0435v2.0972H8.7285v-2.4595h10.0068C18.9355,44.6812,19.0977,44.8438,19.0977,45.0435z M15.2686,61
			c-2.2773,0-4.1299-1.8516-4.1299-4.127c0-2.2773,1.8525-4.1299,4.1299-4.1299c2.2754,0,4.127,1.8525,4.127,4.1299
			C19.3955,59.1484,17.5439,61,15.2686,61z M33.4932,60.4609c-2.1289,0-3.8604-1.7305-3.8604-3.8574
			c0-2.1284,1.7314-3.8604,3.8604-3.8604c2.127,0,3.8574,1.7319,3.8574,3.8604C37.3506,58.7305,35.6201,60.4609,33.4932,60.4609z
			 M47.4902,60.4609c-2.126,0-3.8564-1.7305-3.8564-3.8574c0-2.1284,1.7305-3.8604,3.8564-3.8604
			c2.127,0,3.8574,1.7319,3.8574,3.8604C51.3477,58.7305,49.6172,60.4609,47.4902,60.4609z M56.8135,53.104h-4.636
			c-1.0692-1.4296-2.7695-2.3608-4.6872-2.3608s-3.6177,0.9312-4.6866,2.3608h-4.6233c-1.0692-1.4296-2.7695-2.3608-4.6872-2.3608
			c-1.9189,0-3.62,0.9312-4.6896,2.3608h-8.7134c-1.1225-1.4341-2.8643-2.3608-4.8215-2.3608c-1.9584,0-3.7009,0.9268-4.824,2.3608
			H7.1865c-1.0918,0-1.9805-0.8896-1.9805-1.9834c0-1.0918,0.8887-1.98,1.9805-1.98h49.627c1.0918,0,1.9805,0.8882,1.9805,1.98
			C58.7939,52.2144,57.9053,53.104,56.8135,53.104z"/>
		<path d="M15.9756,56.166c-0.3906-0.3901-1.0166-0.3853-1.4092,0.0054c-0.3896,0.3906-0.3848,1.0288,0.0059,1.4194
			c0.1953,0.1953,0.4512,0.293,0.707,0.293s0.5117-0.0977,0.707-0.293c0.3906-0.3906,0.3906-1.0234,0-1.4141L15.9756,56.166z"/>
		<path d="M34.1865,55.8828c-0.3896-0.3911-1.0156-0.3843-1.4072,0.0068c-0.3906,0.3906-0.3838,1.0303,0.0068,1.4209
			c0.1953,0.1953,0.4512,0.293,0.707,0.293s0.5117-0.0977,0.707-0.293c0.3906-0.3906,0.3906-1.0234,0-1.4141L34.1865,55.8828z"/>
		<path d="M48.1807,55.8804c-0.3984-0.3804-1.0273-0.3608-1.4082,0.0376c-0.3818,0.3999-0.3613,1.0376,0.0381,1.4189
			c0.1934,0.1851,0.4424,0.2769,0.6904,0.2769c0.2637,0,0.5273-0.1035,0.7236-0.3096c0.3809-0.3994,0.3662-1.0322-0.0332-1.4136
			L48.1807,55.8804z"/>
	</g>
</g>
<g id="house">
</g>
<g id="fidget_spinner">
</g>
<g id="rattel">
</g>
<g id="rc_car">
</g>
<g id="ball">
</g>
<g id="candy">
</g>
<g id="doll">
</g>
<g id="plane">
</g>
<g id="bloks">
</g>
</svg>
